<mxfile host="Electron" agent="Mozilla/5.0 (Windows NT 10.0; Win64; x64) AppleWebKit/537.36 (KHTML, like Gecko) draw.io/26.2.2 Chrome/134.0.6998.178 Electron/35.1.2 Safari/537.36" version="26.2.2">
  <diagram name="Страница — 1" id="PhY9HVjGLuqV9rY1AQZw">
    <mxGraphModel dx="3507" dy="3673" grid="1" gridSize="10" guides="1" tooltips="1" connect="1" arrows="1" fold="1" page="1" pageScale="1" pageWidth="827" pageHeight="1169" math="0" shadow="0">
      <root>
        <mxCell id="0" />
        <mxCell id="1" parent="0" />
        <mxCell id="uaMU-dn8yPj3X_pmfBiQ-1" value="&lt;span style=&quot;text-align: left;&quot;&gt;ModernGraphicsRendererAdapter&amp;nbsp;&lt;/span&gt;" style="swimlane;fontStyle=1;align=center;verticalAlign=top;childLayout=stackLayout;horizontal=1;startSize=26;horizontalStack=0;resizeParent=1;resizeParentMax=0;resizeLast=0;collapsible=1;marginBottom=0;whiteSpace=wrap;html=1;" vertex="1" parent="1">
          <mxGeometry x="60" y="-80" width="290" height="192" as="geometry" />
        </mxCell>
        <mxCell id="uaMU-dn8yPj3X_pmfBiQ-2" value="&amp;nbsp; - _currentPoint: ModernGraphicsLib.Point" style="text;strokeColor=none;fillColor=none;align=left;verticalAlign=top;spacingLeft=4;spacingRight=4;overflow=hidden;rotatable=0;points=[[0,0.5],[1,0.5]];portConstraint=eastwest;whiteSpace=wrap;html=1;" vertex="1" parent="uaMU-dn8yPj3X_pmfBiQ-1">
          <mxGeometry y="26" width="290" height="26" as="geometry" />
        </mxCell>
        <mxCell id="uaMU-dn8yPj3X_pmfBiQ-8" value="&amp;nbsp; - _modernGraphicsRenderer: IModernGraphicsRenderer" style="text;strokeColor=none;fillColor=none;align=left;verticalAlign=top;spacingLeft=4;spacingRight=4;overflow=hidden;rotatable=0;points=[[0,0.5],[1,0.5]];portConstraint=eastwest;whiteSpace=wrap;html=1;" vertex="1" parent="uaMU-dn8yPj3X_pmfBiQ-1">
          <mxGeometry y="52" width="290" height="38" as="geometry" />
        </mxCell>
        <mxCell id="uaMU-dn8yPj3X_pmfBiQ-3" value="" style="line;strokeWidth=1;fillColor=none;align=left;verticalAlign=middle;spacingTop=-1;spacingLeft=3;spacingRight=3;rotatable=0;labelPosition=right;points=[];portConstraint=eastwest;strokeColor=inherit;" vertex="1" parent="uaMU-dn8yPj3X_pmfBiQ-1">
          <mxGeometry y="90" width="290" height="8" as="geometry" />
        </mxCell>
        <mxCell id="uaMU-dn8yPj3X_pmfBiQ-4" value="&amp;nbsp;+ ModernGraphicsRendererAdapter(renderer: IModernGraphicsRenderer)" style="text;strokeColor=none;fillColor=none;align=left;verticalAlign=top;spacingLeft=4;spacingRight=4;overflow=hidden;rotatable=0;points=[[0,0.5],[1,0.5]];portConstraint=eastwest;whiteSpace=wrap;html=1;" vertex="1" parent="uaMU-dn8yPj3X_pmfBiQ-1">
          <mxGeometry y="98" width="290" height="42" as="geometry" />
        </mxCell>
        <mxCell id="uaMU-dn8yPj3X_pmfBiQ-6" value="&amp;nbsp; + MoveTo(x: double, y: double): void" style="text;strokeColor=none;fillColor=none;align=left;verticalAlign=top;spacingLeft=4;spacingRight=4;overflow=hidden;rotatable=0;points=[[0,0.5],[1,0.5]];portConstraint=eastwest;whiteSpace=wrap;html=1;" vertex="1" parent="uaMU-dn8yPj3X_pmfBiQ-1">
          <mxGeometry y="140" width="290" height="26" as="geometry" />
        </mxCell>
        <mxCell id="uaMU-dn8yPj3X_pmfBiQ-7" value="&amp;nbsp; + LineTo(x: double, y: double): void" style="text;strokeColor=none;fillColor=none;align=left;verticalAlign=top;spacingLeft=4;spacingRight=4;overflow=hidden;rotatable=0;points=[[0,0.5],[1,0.5]];portConstraint=eastwest;whiteSpace=wrap;html=1;" vertex="1" parent="uaMU-dn8yPj3X_pmfBiQ-1">
          <mxGeometry y="166" width="290" height="26" as="geometry" />
        </mxCell>
        <mxCell id="uaMU-dn8yPj3X_pmfBiQ-10" value="PicturePainter" style="swimlane;fontStyle=1;align=center;verticalAlign=top;childLayout=stackLayout;horizontal=1;startSize=26;horizontalStack=0;resizeParent=1;resizeParentMax=0;resizeLast=0;collapsible=1;marginBottom=0;whiteSpace=wrap;html=1;" vertex="1" parent="1">
          <mxGeometry x="290" y="730" width="260" height="90" as="geometry" />
        </mxCell>
        <mxCell id="uaMU-dn8yPj3X_pmfBiQ-13" value="&amp;nbsp; + PaintPictureOnCanvas(): void" style="text;strokeColor=none;fillColor=none;align=left;verticalAlign=top;spacingLeft=4;spacingRight=4;overflow=hidden;rotatable=0;points=[[0,0.5],[1,0.5]];portConstraint=eastwest;whiteSpace=wrap;html=1;" vertex="1" parent="uaMU-dn8yPj3X_pmfBiQ-10">
          <mxGeometry y="26" width="260" height="26" as="geometry" />
        </mxCell>
        <mxCell id="uaMU-dn8yPj3X_pmfBiQ-14" value="&amp;nbsp; + PaintPictureOnModernGraphicsRenderer(): void" style="text;strokeColor=none;fillColor=none;align=left;verticalAlign=top;spacingLeft=4;spacingRight=4;overflow=hidden;rotatable=0;points=[[0,0.5],[1,0.5]];portConstraint=eastwest;whiteSpace=wrap;html=1;" vertex="1" parent="uaMU-dn8yPj3X_pmfBiQ-10">
          <mxGeometry y="52" width="260" height="38" as="geometry" />
        </mxCell>
        <mxCell id="uaMU-dn8yPj3X_pmfBiQ-21" value="&lt;p style=&quot;margin:0px;margin-top:4px;text-align:center;&quot;&gt;&lt;i&gt;&amp;lt;&amp;lt;Interface&amp;gt;&amp;gt;&lt;/i&gt;&lt;br&gt;&lt;b&gt;ICanvas&lt;/b&gt;&lt;/p&gt;&lt;hr size=&quot;1&quot; style=&quot;border-style:solid;&quot;&gt;&lt;p style=&quot;margin:0px;margin-left:4px;&quot;&gt;&amp;nbsp; + MoveTo(x: double, y: double): void&lt;br&gt;&amp;nbsp; + LineTo(x: double, y: double): void&lt;br style=&quot;padding: 0px; margin: 0px;&quot;&gt;&lt;/p&gt;" style="verticalAlign=top;align=left;overflow=fill;html=1;whiteSpace=wrap;" vertex="1" parent="1">
          <mxGeometry x="490" y="208" width="220" height="90" as="geometry" />
        </mxCell>
        <mxCell id="uaMU-dn8yPj3X_pmfBiQ-22" value="CCanvas" style="swimlane;fontStyle=1;align=center;verticalAlign=top;childLayout=stackLayout;horizontal=1;startSize=26;horizontalStack=0;resizeParent=1;resizeParentMax=0;resizeLast=0;collapsible=1;marginBottom=0;whiteSpace=wrap;html=1;" vertex="1" parent="1">
          <mxGeometry x="490" y="430" width="220" height="78" as="geometry" />
        </mxCell>
        <mxCell id="uaMU-dn8yPj3X_pmfBiQ-25" value="&amp;nbsp; + MoveTo(x: double, y: double): void" style="text;strokeColor=none;fillColor=none;align=left;verticalAlign=top;spacingLeft=4;spacingRight=4;overflow=hidden;rotatable=0;points=[[0,0.5],[1,0.5]];portConstraint=eastwest;whiteSpace=wrap;html=1;" vertex="1" parent="uaMU-dn8yPj3X_pmfBiQ-22">
          <mxGeometry y="26" width="220" height="26" as="geometry" />
        </mxCell>
        <mxCell id="uaMU-dn8yPj3X_pmfBiQ-26" value="&amp;nbsp; + LineTo(x: double, y: double): void" style="text;strokeColor=none;fillColor=none;align=left;verticalAlign=top;spacingLeft=4;spacingRight=4;overflow=hidden;rotatable=0;points=[[0,0.5],[1,0.5]];portConstraint=eastwest;whiteSpace=wrap;html=1;" vertex="1" parent="uaMU-dn8yPj3X_pmfBiQ-22">
          <mxGeometry y="52" width="220" height="26" as="geometry" />
        </mxCell>
        <mxCell id="uaMU-dn8yPj3X_pmfBiQ-28" value="ModernGraphicsLib.Point" style="swimlane;fontStyle=1;align=center;verticalAlign=top;childLayout=stackLayout;horizontal=1;startSize=26;horizontalStack=0;resizeParent=1;resizeParentMax=0;resizeLast=0;collapsible=1;marginBottom=0;whiteSpace=wrap;html=1;" vertex="1" parent="1">
          <mxGeometry x="-250" y="298" width="190" height="112" as="geometry" />
        </mxCell>
        <mxCell id="uaMU-dn8yPj3X_pmfBiQ-29" value="&amp;nbsp; + X: double" style="text;strokeColor=none;fillColor=none;align=left;verticalAlign=top;spacingLeft=4;spacingRight=4;overflow=hidden;rotatable=0;points=[[0,0.5],[1,0.5]];portConstraint=eastwest;whiteSpace=wrap;html=1;" vertex="1" parent="uaMU-dn8yPj3X_pmfBiQ-28">
          <mxGeometry y="26" width="190" height="26" as="geometry" />
        </mxCell>
        <mxCell id="uaMU-dn8yPj3X_pmfBiQ-32" value="&amp;nbsp; + Y: double" style="text;strokeColor=none;fillColor=none;align=left;verticalAlign=top;spacingLeft=4;spacingRight=4;overflow=hidden;rotatable=0;points=[[0,0.5],[1,0.5]];portConstraint=eastwest;whiteSpace=wrap;html=1;" vertex="1" parent="uaMU-dn8yPj3X_pmfBiQ-28">
          <mxGeometry y="52" width="190" height="26" as="geometry" />
        </mxCell>
        <mxCell id="uaMU-dn8yPj3X_pmfBiQ-30" value="" style="line;strokeWidth=1;fillColor=none;align=left;verticalAlign=middle;spacingTop=-1;spacingLeft=3;spacingRight=3;rotatable=0;labelPosition=right;points=[];portConstraint=eastwest;strokeColor=inherit;" vertex="1" parent="uaMU-dn8yPj3X_pmfBiQ-28">
          <mxGeometry y="78" width="190" height="8" as="geometry" />
        </mxCell>
        <mxCell id="uaMU-dn8yPj3X_pmfBiQ-31" value="&amp;nbsp; + Point(x: double, y: double)" style="text;strokeColor=none;fillColor=none;align=left;verticalAlign=top;spacingLeft=4;spacingRight=4;overflow=hidden;rotatable=0;points=[[0,0.5],[1,0.5]];portConstraint=eastwest;whiteSpace=wrap;html=1;" vertex="1" parent="uaMU-dn8yPj3X_pmfBiQ-28">
          <mxGeometry y="86" width="190" height="26" as="geometry" />
        </mxCell>
        <mxCell id="uaMU-dn8yPj3X_pmfBiQ-33" value="&lt;p style=&quot;margin:0px;margin-top:4px;text-align:center;&quot;&gt;&lt;i&gt;&amp;lt;&amp;lt;Interface&amp;gt;&amp;gt;&lt;/i&gt;&lt;br&gt;&lt;b&gt;IModernGraphicRenderer&lt;br&gt;&lt;/b&gt;&lt;/p&gt;&lt;hr size=&quot;1&quot; style=&quot;border-style:solid;&quot;&gt;&lt;p style=&quot;margin:0px;margin-left:4px;&quot;&gt;&amp;nbsp;+ BeginDraw(): void&lt;br style=&quot;padding: 0px; margin: 0px;&quot;&gt;&amp;nbsp; + DrawLine(start: Point, end: Point): void&lt;br style=&quot;padding: 0px; margin: 0px;&quot;&gt;&amp;nbsp; + EndDraw(): void&lt;/p&gt;" style="verticalAlign=top;align=left;overflow=fill;html=1;whiteSpace=wrap;" vertex="1" parent="1">
          <mxGeometry x="-10" y="350" width="190" height="140" as="geometry" />
        </mxCell>
        <mxCell id="uaMU-dn8yPj3X_pmfBiQ-34" value="ModernGraphicsRenderer" style="swimlane;fontStyle=1;align=center;verticalAlign=top;childLayout=stackLayout;horizontal=1;startSize=26;horizontalStack=0;resizeParent=1;resizeParentMax=0;resizeLast=0;collapsible=1;marginBottom=0;whiteSpace=wrap;html=1;" vertex="1" parent="1">
          <mxGeometry x="-240" y="670" width="350" height="138" as="geometry" />
        </mxCell>
        <mxCell id="uaMU-dn8yPj3X_pmfBiQ-35" value="&amp;nbsp; - _drawing: bool" style="text;strokeColor=none;fillColor=none;align=left;verticalAlign=top;spacingLeft=4;spacingRight=4;overflow=hidden;rotatable=0;points=[[0,0.5],[1,0.5]];portConstraint=eastwest;whiteSpace=wrap;html=1;" vertex="1" parent="uaMU-dn8yPj3X_pmfBiQ-34">
          <mxGeometry y="26" width="350" height="26" as="geometry" />
        </mxCell>
        <mxCell id="uaMU-dn8yPj3X_pmfBiQ-36" value="" style="line;strokeWidth=1;fillColor=none;align=left;verticalAlign=middle;spacingTop=-1;spacingLeft=3;spacingRight=3;rotatable=0;labelPosition=right;points=[];portConstraint=eastwest;strokeColor=inherit;" vertex="1" parent="uaMU-dn8yPj3X_pmfBiQ-34">
          <mxGeometry y="52" width="350" height="8" as="geometry" />
        </mxCell>
        <mxCell id="uaMU-dn8yPj3X_pmfBiQ-37" value="&amp;nbsp; + BeginDraw(): void" style="text;strokeColor=none;fillColor=none;align=left;verticalAlign=top;spacingLeft=4;spacingRight=4;overflow=hidden;rotatable=0;points=[[0,0.5],[1,0.5]];portConstraint=eastwest;whiteSpace=wrap;html=1;" vertex="1" parent="uaMU-dn8yPj3X_pmfBiQ-34">
          <mxGeometry y="60" width="350" height="26" as="geometry" />
        </mxCell>
        <mxCell id="uaMU-dn8yPj3X_pmfBiQ-39" value="&amp;nbsp; + DrawLine(start: Point, end: Point): void" style="text;strokeColor=none;fillColor=none;align=left;verticalAlign=top;spacingLeft=4;spacingRight=4;overflow=hidden;rotatable=0;points=[[0,0.5],[1,0.5]];portConstraint=eastwest;whiteSpace=wrap;html=1;" vertex="1" parent="uaMU-dn8yPj3X_pmfBiQ-34">
          <mxGeometry y="86" width="350" height="26" as="geometry" />
        </mxCell>
        <mxCell id="uaMU-dn8yPj3X_pmfBiQ-38" value="&amp;nbsp; + EndDraw(): void" style="text;strokeColor=none;fillColor=none;align=left;verticalAlign=top;spacingLeft=4;spacingRight=4;overflow=hidden;rotatable=0;points=[[0,0.5],[1,0.5]];portConstraint=eastwest;whiteSpace=wrap;html=1;" vertex="1" parent="uaMU-dn8yPj3X_pmfBiQ-34">
          <mxGeometry y="112" width="350" height="26" as="geometry" />
        </mxCell>
        <mxCell id="uaMU-dn8yPj3X_pmfBiQ-40" value="&lt;p style=&quot;margin:0px;margin-top:4px;text-align:center;&quot;&gt;&lt;i&gt;&amp;lt;&amp;lt;Interface&amp;gt;&amp;gt;&lt;/i&gt;&lt;br&gt;&lt;b&gt;ICanvasDrawable&lt;/b&gt;&lt;/p&gt;&lt;hr size=&quot;1&quot; style=&quot;border-style:solid;&quot;&gt;&lt;p style=&quot;margin:0px;margin-left:4px;&quot;&gt;&amp;nbsp; + Draw(canvas: ICanvas): void&lt;br style=&quot;padding: 0px; margin: 0px;&quot;&gt;&lt;/p&gt;" style="verticalAlign=top;align=left;overflow=fill;html=1;whiteSpace=wrap;" vertex="1" parent="1">
          <mxGeometry x="1070" y="-30" width="190" height="70" as="geometry" />
        </mxCell>
        <mxCell id="uaMU-dn8yPj3X_pmfBiQ-47" value="ShapeDrawingLib.Point" style="swimlane;fontStyle=1;align=center;verticalAlign=top;childLayout=stackLayout;horizontal=1;startSize=26;horizontalStack=0;resizeParent=1;resizeParentMax=0;resizeLast=0;collapsible=1;marginBottom=0;whiteSpace=wrap;html=1;" vertex="1" parent="1">
          <mxGeometry x="1060" y="708" width="190" height="112" as="geometry" />
        </mxCell>
        <mxCell id="uaMU-dn8yPj3X_pmfBiQ-48" value="&amp;nbsp; + X: double" style="text;strokeColor=none;fillColor=none;align=left;verticalAlign=top;spacingLeft=4;spacingRight=4;overflow=hidden;rotatable=0;points=[[0,0.5],[1,0.5]];portConstraint=eastwest;whiteSpace=wrap;html=1;" vertex="1" parent="uaMU-dn8yPj3X_pmfBiQ-47">
          <mxGeometry y="26" width="190" height="26" as="geometry" />
        </mxCell>
        <mxCell id="uaMU-dn8yPj3X_pmfBiQ-49" value="&amp;nbsp; + Y: double" style="text;strokeColor=none;fillColor=none;align=left;verticalAlign=top;spacingLeft=4;spacingRight=4;overflow=hidden;rotatable=0;points=[[0,0.5],[1,0.5]];portConstraint=eastwest;whiteSpace=wrap;html=1;" vertex="1" parent="uaMU-dn8yPj3X_pmfBiQ-47">
          <mxGeometry y="52" width="190" height="26" as="geometry" />
        </mxCell>
        <mxCell id="uaMU-dn8yPj3X_pmfBiQ-50" value="" style="line;strokeWidth=1;fillColor=none;align=left;verticalAlign=middle;spacingTop=-1;spacingLeft=3;spacingRight=3;rotatable=0;labelPosition=right;points=[];portConstraint=eastwest;strokeColor=inherit;" vertex="1" parent="uaMU-dn8yPj3X_pmfBiQ-47">
          <mxGeometry y="78" width="190" height="8" as="geometry" />
        </mxCell>
        <mxCell id="uaMU-dn8yPj3X_pmfBiQ-51" value="&amp;nbsp; + Point(x: double, y: double)" style="text;strokeColor=none;fillColor=none;align=left;verticalAlign=top;spacingLeft=4;spacingRight=4;overflow=hidden;rotatable=0;points=[[0,0.5],[1,0.5]];portConstraint=eastwest;whiteSpace=wrap;html=1;" vertex="1" parent="uaMU-dn8yPj3X_pmfBiQ-47">
          <mxGeometry y="86" width="190" height="26" as="geometry" />
        </mxCell>
        <mxCell id="uaMU-dn8yPj3X_pmfBiQ-53" value="CTriangle" style="swimlane;fontStyle=1;align=center;verticalAlign=top;childLayout=stackLayout;horizontal=1;startSize=26;horizontalStack=0;resizeParent=1;resizeParentMax=0;resizeLast=0;collapsible=1;marginBottom=0;whiteSpace=wrap;html=1;" vertex="1" parent="1">
          <mxGeometry x="880" y="210" width="250" height="170" as="geometry" />
        </mxCell>
        <mxCell id="uaMU-dn8yPj3X_pmfBiQ-54" value="&amp;nbsp; - _firstVertex: Point" style="text;strokeColor=none;fillColor=none;align=left;verticalAlign=top;spacingLeft=4;spacingRight=4;overflow=hidden;rotatable=0;points=[[0,0.5],[1,0.5]];portConstraint=eastwest;whiteSpace=wrap;html=1;" vertex="1" parent="uaMU-dn8yPj3X_pmfBiQ-53">
          <mxGeometry y="26" width="250" height="26" as="geometry" />
        </mxCell>
        <mxCell id="uaMU-dn8yPj3X_pmfBiQ-58" value="- _secondVertex: Point" style="text;strokeColor=none;fillColor=none;align=left;verticalAlign=top;spacingLeft=4;spacingRight=4;overflow=hidden;rotatable=0;points=[[0,0.5],[1,0.5]];portConstraint=eastwest;whiteSpace=wrap;html=1;" vertex="1" parent="uaMU-dn8yPj3X_pmfBiQ-53">
          <mxGeometry y="52" width="250" height="26" as="geometry" />
        </mxCell>
        <mxCell id="uaMU-dn8yPj3X_pmfBiQ-57" value="&amp;nbsp; - _thirdVertex: Point" style="text;strokeColor=none;fillColor=none;align=left;verticalAlign=top;spacingLeft=4;spacingRight=4;overflow=hidden;rotatable=0;points=[[0,0.5],[1,0.5]];portConstraint=eastwest;whiteSpace=wrap;html=1;" vertex="1" parent="uaMU-dn8yPj3X_pmfBiQ-53">
          <mxGeometry y="78" width="250" height="26" as="geometry" />
        </mxCell>
        <mxCell id="uaMU-dn8yPj3X_pmfBiQ-55" value="" style="line;strokeWidth=1;fillColor=none;align=left;verticalAlign=middle;spacingTop=-1;spacingLeft=3;spacingRight=3;rotatable=0;labelPosition=right;points=[];portConstraint=eastwest;strokeColor=inherit;" vertex="1" parent="uaMU-dn8yPj3X_pmfBiQ-53">
          <mxGeometry y="104" width="250" height="8" as="geometry" />
        </mxCell>
        <mxCell id="uaMU-dn8yPj3X_pmfBiQ-56" value="&amp;nbsp; + CTriangle(p1: Point, p2: Point, p3: Point)" style="text;strokeColor=none;fillColor=none;align=left;verticalAlign=top;spacingLeft=4;spacingRight=4;overflow=hidden;rotatable=0;points=[[0,0.5],[1,0.5]];portConstraint=eastwest;whiteSpace=wrap;html=1;" vertex="1" parent="uaMU-dn8yPj3X_pmfBiQ-53">
          <mxGeometry y="112" width="250" height="28" as="geometry" />
        </mxCell>
        <mxCell id="uaMU-dn8yPj3X_pmfBiQ-59" value="&amp;nbsp; + Draw(canvas: ICanvas): void" style="text;strokeColor=none;fillColor=none;align=left;verticalAlign=top;spacingLeft=4;spacingRight=4;overflow=hidden;rotatable=0;points=[[0,0.5],[1,0.5]];portConstraint=eastwest;whiteSpace=wrap;html=1;" vertex="1" parent="uaMU-dn8yPj3X_pmfBiQ-53">
          <mxGeometry y="140" width="250" height="30" as="geometry" />
        </mxCell>
        <mxCell id="uaMU-dn8yPj3X_pmfBiQ-60" value="CRectangle" style="swimlane;fontStyle=1;align=center;verticalAlign=top;childLayout=stackLayout;horizontal=1;startSize=26;horizontalStack=0;resizeParent=1;resizeParentMax=0;resizeLast=0;collapsible=1;marginBottom=0;whiteSpace=wrap;html=1;" vertex="1" parent="1">
          <mxGeometry x="1200" y="190" width="250" height="186" as="geometry" />
        </mxCell>
        <mxCell id="uaMU-dn8yPj3X_pmfBiQ-61" value="&amp;nbsp; - _leftTopPoint: Point" style="text;strokeColor=none;fillColor=none;align=left;verticalAlign=top;spacingLeft=4;spacingRight=4;overflow=hidden;rotatable=0;points=[[0,0.5],[1,0.5]];portConstraint=eastwest;whiteSpace=wrap;html=1;" vertex="1" parent="uaMU-dn8yPj3X_pmfBiQ-60">
          <mxGeometry y="26" width="250" height="26" as="geometry" />
        </mxCell>
        <mxCell id="uaMU-dn8yPj3X_pmfBiQ-65" value="&amp;nbsp; - _width: double" style="text;strokeColor=none;fillColor=none;align=left;verticalAlign=top;spacingLeft=4;spacingRight=4;overflow=hidden;rotatable=0;points=[[0,0.5],[1,0.5]];portConstraint=eastwest;whiteSpace=wrap;html=1;" vertex="1" parent="uaMU-dn8yPj3X_pmfBiQ-60">
          <mxGeometry y="52" width="250" height="26" as="geometry" />
        </mxCell>
        <mxCell id="uaMU-dn8yPj3X_pmfBiQ-64" value="&amp;nbsp; - _height: double" style="text;strokeColor=none;fillColor=none;align=left;verticalAlign=top;spacingLeft=4;spacingRight=4;overflow=hidden;rotatable=0;points=[[0,0.5],[1,0.5]];portConstraint=eastwest;whiteSpace=wrap;html=1;" vertex="1" parent="uaMU-dn8yPj3X_pmfBiQ-60">
          <mxGeometry y="78" width="250" height="26" as="geometry" />
        </mxCell>
        <mxCell id="uaMU-dn8yPj3X_pmfBiQ-62" value="" style="line;strokeWidth=1;fillColor=none;align=left;verticalAlign=middle;spacingTop=-1;spacingLeft=3;spacingRight=3;rotatable=0;labelPosition=right;points=[];portConstraint=eastwest;strokeColor=inherit;" vertex="1" parent="uaMU-dn8yPj3X_pmfBiQ-60">
          <mxGeometry y="104" width="250" height="8" as="geometry" />
        </mxCell>
        <mxCell id="uaMU-dn8yPj3X_pmfBiQ-63" value="&amp;nbsp; + CRectangle(leftTopPoint: Point, width: double, height: double)" style="text;strokeColor=none;fillColor=none;align=left;verticalAlign=top;spacingLeft=4;spacingRight=4;overflow=hidden;rotatable=0;points=[[0,0.5],[1,0.5]];portConstraint=eastwest;whiteSpace=wrap;html=1;" vertex="1" parent="uaMU-dn8yPj3X_pmfBiQ-60">
          <mxGeometry y="112" width="250" height="48" as="geometry" />
        </mxCell>
        <mxCell id="uaMU-dn8yPj3X_pmfBiQ-66" value="&amp;nbsp; + Draw(canvas: ICanvas): void" style="text;strokeColor=none;fillColor=none;align=left;verticalAlign=top;spacingLeft=4;spacingRight=4;overflow=hidden;rotatable=0;points=[[0,0.5],[1,0.5]];portConstraint=eastwest;whiteSpace=wrap;html=1;" vertex="1" parent="uaMU-dn8yPj3X_pmfBiQ-60">
          <mxGeometry y="160" width="250" height="26" as="geometry" />
        </mxCell>
        <mxCell id="uaMU-dn8yPj3X_pmfBiQ-67" value="CanvasPainter" style="swimlane;fontStyle=1;align=center;verticalAlign=top;childLayout=stackLayout;horizontal=1;startSize=26;horizontalStack=0;resizeParent=1;resizeParentMax=0;resizeLast=0;collapsible=1;marginBottom=0;whiteSpace=wrap;html=1;" vertex="1" parent="1">
          <mxGeometry x="650" y="-40" width="200" height="144" as="geometry" />
        </mxCell>
        <mxCell id="uaMU-dn8yPj3X_pmfBiQ-68" value="&amp;nbsp; - _canvas: ICanvas" style="text;strokeColor=none;fillColor=none;align=left;verticalAlign=top;spacingLeft=4;spacingRight=4;overflow=hidden;rotatable=0;points=[[0,0.5],[1,0.5]];portConstraint=eastwest;whiteSpace=wrap;html=1;" vertex="1" parent="uaMU-dn8yPj3X_pmfBiQ-67">
          <mxGeometry y="26" width="200" height="26" as="geometry" />
        </mxCell>
        <mxCell id="uaMU-dn8yPj3X_pmfBiQ-69" value="" style="line;strokeWidth=1;fillColor=none;align=left;verticalAlign=middle;spacingTop=-1;spacingLeft=3;spacingRight=3;rotatable=0;labelPosition=right;points=[];portConstraint=eastwest;strokeColor=inherit;" vertex="1" parent="uaMU-dn8yPj3X_pmfBiQ-67">
          <mxGeometry y="52" width="200" height="8" as="geometry" />
        </mxCell>
        <mxCell id="uaMU-dn8yPj3X_pmfBiQ-70" value="&amp;nbsp; + CanvasPainter(canvas: ICanvas)" style="text;strokeColor=none;fillColor=none;align=left;verticalAlign=top;spacingLeft=4;spacingRight=4;overflow=hidden;rotatable=0;points=[[0,0.5],[1,0.5]];portConstraint=eastwest;whiteSpace=wrap;html=1;" vertex="1" parent="uaMU-dn8yPj3X_pmfBiQ-67">
          <mxGeometry y="60" width="200" height="40" as="geometry" />
        </mxCell>
        <mxCell id="uaMU-dn8yPj3X_pmfBiQ-71" value="&amp;nbsp; + Draw(drawable: ICanvasDrawable): void" style="text;strokeColor=none;fillColor=none;align=left;verticalAlign=top;spacingLeft=4;spacingRight=4;overflow=hidden;rotatable=0;points=[[0,0.5],[1,0.5]];portConstraint=eastwest;whiteSpace=wrap;html=1;" vertex="1" parent="uaMU-dn8yPj3X_pmfBiQ-67">
          <mxGeometry y="100" width="200" height="44" as="geometry" />
        </mxCell>
        <mxCell id="uaMU-dn8yPj3X_pmfBiQ-72" value="" style="endArrow=block;dashed=1;endFill=0;endSize=12;html=1;rounded=0;entryX=0.5;entryY=1;entryDx=0;entryDy=0;exitX=0.5;exitY=0;exitDx=0;exitDy=0;" edge="1" parent="1" source="uaMU-dn8yPj3X_pmfBiQ-22" target="uaMU-dn8yPj3X_pmfBiQ-21">
          <mxGeometry width="160" relative="1" as="geometry">
            <mxPoint x="380" y="590" as="sourcePoint" />
            <mxPoint x="540" y="590" as="targetPoint" />
          </mxGeometry>
        </mxCell>
        <mxCell id="uaMU-dn8yPj3X_pmfBiQ-73" value="" style="endArrow=block;dashed=1;endFill=0;endSize=12;html=1;rounded=0;entryX=0.5;entryY=1;entryDx=0;entryDy=0;exitX=0.5;exitY=0;exitDx=0;exitDy=0;" edge="1" parent="1" source="uaMU-dn8yPj3X_pmfBiQ-34" target="uaMU-dn8yPj3X_pmfBiQ-33">
          <mxGeometry width="160" relative="1" as="geometry">
            <mxPoint x="350" y="510" as="sourcePoint" />
            <mxPoint x="545" y="360" as="targetPoint" />
            <Array as="points">
              <mxPoint x="-60" y="580" />
            </Array>
          </mxGeometry>
        </mxCell>
        <mxCell id="uaMU-dn8yPj3X_pmfBiQ-74" value="" style="endArrow=block;dashed=1;endFill=0;endSize=12;html=1;rounded=0;entryX=0.25;entryY=0;entryDx=0;entryDy=0;exitX=1.001;exitY=0.195;exitDx=0;exitDy=0;exitPerimeter=0;" edge="1" parent="1" source="uaMU-dn8yPj3X_pmfBiQ-4" target="uaMU-dn8yPj3X_pmfBiQ-21">
          <mxGeometry width="160" relative="1" as="geometry">
            <mxPoint x="350" y="510" as="sourcePoint" />
            <mxPoint x="545" y="360" as="targetPoint" />
            <Array as="points">
              <mxPoint x="450" y="26" />
            </Array>
          </mxGeometry>
        </mxCell>
        <mxCell id="uaMU-dn8yPj3X_pmfBiQ-75" value="" style="endArrow=block;dashed=1;endFill=0;endSize=12;html=1;rounded=0;entryX=0;entryY=1;entryDx=0;entryDy=0;exitX=0.5;exitY=0;exitDx=0;exitDy=0;" edge="1" parent="1" source="uaMU-dn8yPj3X_pmfBiQ-53" target="uaMU-dn8yPj3X_pmfBiQ-40">
          <mxGeometry width="160" relative="1" as="geometry">
            <mxPoint x="930" y="270" as="sourcePoint" />
            <mxPoint x="965" y="40" as="targetPoint" />
            <Array as="points">
              <mxPoint x="1010" y="110" />
            </Array>
          </mxGeometry>
        </mxCell>
        <mxCell id="uaMU-dn8yPj3X_pmfBiQ-76" value="" style="endArrow=block;dashed=1;endFill=0;endSize=12;html=1;rounded=0;entryX=1;entryY=1;entryDx=0;entryDy=0;exitX=0.5;exitY=0;exitDx=0;exitDy=0;" edge="1" parent="1" source="uaMU-dn8yPj3X_pmfBiQ-60" target="uaMU-dn8yPj3X_pmfBiQ-40">
          <mxGeometry width="160" relative="1" as="geometry">
            <mxPoint x="1210" y="230" as="sourcePoint" />
            <mxPoint x="1305" y="80" as="targetPoint" />
            <Array as="points">
              <mxPoint x="1320" y="120" />
            </Array>
          </mxGeometry>
        </mxCell>
        <mxCell id="uaMU-dn8yPj3X_pmfBiQ-78" value="" style="endArrow=diamondThin;endFill=0;endSize=24;html=1;rounded=0;entryX=0.417;entryY=1.111;entryDx=0;entryDy=0;entryPerimeter=0;exitX=0.25;exitY=0;exitDx=0;exitDy=0;" edge="1" parent="1" source="uaMU-dn8yPj3X_pmfBiQ-47" target="uaMU-dn8yPj3X_pmfBiQ-59">
          <mxGeometry width="160" relative="1" as="geometry">
            <mxPoint x="980" y="610" as="sourcePoint" />
            <mxPoint x="1140" y="610" as="targetPoint" />
            <Array as="points">
              <mxPoint x="980" y="560" />
            </Array>
          </mxGeometry>
        </mxCell>
        <mxCell id="uaMU-dn8yPj3X_pmfBiQ-79" value="" style="endArrow=diamondThin;endFill=0;endSize=24;html=1;rounded=0;exitX=0.75;exitY=0;exitDx=0;exitDy=0;" edge="1" parent="1" source="uaMU-dn8yPj3X_pmfBiQ-47">
          <mxGeometry width="160" relative="1" as="geometry">
            <mxPoint x="1078" y="523" as="sourcePoint" />
            <mxPoint x="1320" y="390" as="targetPoint" />
            <Array as="points">
              <mxPoint x="1320" y="560" />
            </Array>
          </mxGeometry>
        </mxCell>
        <mxCell id="uaMU-dn8yPj3X_pmfBiQ-80" value="" style="endArrow=diamondThin;endFill=0;endSize=24;html=1;rounded=0;entryX=0.3;entryY=1.045;entryDx=0;entryDy=0;exitX=0.75;exitY=0;exitDx=0;exitDy=0;entryPerimeter=0;" edge="1" parent="1" source="uaMU-dn8yPj3X_pmfBiQ-21" target="uaMU-dn8yPj3X_pmfBiQ-71">
          <mxGeometry width="160" relative="1" as="geometry">
            <mxPoint x="300" y="310" as="sourcePoint" />
            <mxPoint x="460" y="310" as="targetPoint" />
            <Array as="points">
              <mxPoint x="660" y="150" />
            </Array>
          </mxGeometry>
        </mxCell>
        <mxCell id="uaMU-dn8yPj3X_pmfBiQ-81" value="Use" style="endArrow=open;endSize=12;dashed=1;html=1;rounded=0;entryX=0;entryY=0.5;entryDx=0;entryDy=0;exitX=1;exitY=0.5;exitDx=0;exitDy=0;" edge="1" parent="1" source="uaMU-dn8yPj3X_pmfBiQ-70" target="uaMU-dn8yPj3X_pmfBiQ-40">
          <mxGeometry width="160" relative="1" as="geometry">
            <mxPoint x="800" y="100" as="sourcePoint" />
            <mxPoint x="960" y="100" as="targetPoint" />
            <Array as="points">
              <mxPoint x="950" y="5" />
            </Array>
          </mxGeometry>
        </mxCell>
        <mxCell id="uaMU-dn8yPj3X_pmfBiQ-83" value="" style="endArrow=diamondThin;endFill=1;endSize=24;html=1;rounded=0;entryX=0.076;entryY=1.077;entryDx=0;entryDy=0;entryPerimeter=0;exitX=0.5;exitY=0;exitDx=0;exitDy=0;" edge="1" parent="1" source="uaMU-dn8yPj3X_pmfBiQ-28" target="uaMU-dn8yPj3X_pmfBiQ-7">
          <mxGeometry width="160" relative="1" as="geometry">
            <mxPoint x="280" y="30" as="sourcePoint" />
            <mxPoint x="440" y="30" as="targetPoint" />
            <Array as="points">
              <mxPoint x="-140" y="190" />
            </Array>
          </mxGeometry>
        </mxCell>
        <mxCell id="uaMU-dn8yPj3X_pmfBiQ-84" value="" style="endArrow=diamondThin;endFill=0;endSize=24;html=1;rounded=0;entryX=0.499;entryY=0.974;entryDx=0;entryDy=0;entryPerimeter=0;exitX=0.5;exitY=0;exitDx=0;exitDy=0;" edge="1" parent="1" source="uaMU-dn8yPj3X_pmfBiQ-33" target="uaMU-dn8yPj3X_pmfBiQ-7">
          <mxGeometry width="160" relative="1" as="geometry">
            <mxPoint x="20" y="480" as="sourcePoint" />
            <mxPoint x="180" y="480" as="targetPoint" />
            <Array as="points">
              <mxPoint x="85" y="210" />
            </Array>
          </mxGeometry>
        </mxCell>
        <mxCell id="uaMU-dn8yPj3X_pmfBiQ-85" value="" style="endArrow=diamondThin;endFill=1;endSize=24;html=1;rounded=0;entryX=0;entryY=0.5;entryDx=0;entryDy=0;exitX=1;exitY=0.5;exitDx=0;exitDy=0;" edge="1" parent="1" source="uaMU-dn8yPj3X_pmfBiQ-37" target="uaMU-dn8yPj3X_pmfBiQ-13">
          <mxGeometry width="160" relative="1" as="geometry">
            <mxPoint x="160" y="640" as="sourcePoint" />
            <mxPoint x="320" y="640" as="targetPoint" />
          </mxGeometry>
        </mxCell>
        <mxCell id="uaMU-dn8yPj3X_pmfBiQ-86" value="" style="endArrow=diamondThin;endFill=1;endSize=24;html=1;rounded=0;entryX=0.139;entryY=-0.044;entryDx=0;entryDy=0;exitX=0.692;exitY=1.128;exitDx=0;exitDy=0;entryPerimeter=0;exitPerimeter=0;" edge="1" parent="1" source="uaMU-dn8yPj3X_pmfBiQ-7" target="uaMU-dn8yPj3X_pmfBiQ-10">
          <mxGeometry width="160" relative="1" as="geometry">
            <mxPoint x="233" y="610" as="sourcePoint" />
            <mxPoint x="413" y="636" as="targetPoint" />
            <Array as="points">
              <mxPoint x="320" y="310" />
            </Array>
          </mxGeometry>
        </mxCell>
        <mxCell id="uaMU-dn8yPj3X_pmfBiQ-87" value="" style="endArrow=diamondThin;endFill=1;endSize=24;html=1;rounded=0;entryX=0.421;entryY=-0.03;entryDx=0;entryDy=0;exitX=0.364;exitY=1.179;exitDx=0;exitDy=0;entryPerimeter=0;exitPerimeter=0;" edge="1" parent="1" source="uaMU-dn8yPj3X_pmfBiQ-26" target="uaMU-dn8yPj3X_pmfBiQ-10">
          <mxGeometry width="160" relative="1" as="geometry">
            <mxPoint x="440" y="119" as="sourcePoint" />
            <mxPoint x="505" y="730" as="targetPoint" />
            <Array as="points">
              <mxPoint x="399" y="550" />
            </Array>
          </mxGeometry>
        </mxCell>
        <mxCell id="uaMU-dn8yPj3X_pmfBiQ-88" value="" style="endArrow=diamondThin;endFill=1;endSize=24;html=1;rounded=0;entryX=1.014;entryY=-0.101;entryDx=0;entryDy=0;exitX=0.651;exitY=1.133;exitDx=0;exitDy=0;entryPerimeter=0;exitPerimeter=0;" edge="1" parent="1" source="uaMU-dn8yPj3X_pmfBiQ-71" target="uaMU-dn8yPj3X_pmfBiQ-14">
          <mxGeometry width="160" relative="1" as="geometry">
            <mxPoint x="841" y="530" as="sourcePoint" />
            <mxPoint x="670" y="744" as="targetPoint" />
            <Array as="points">
              <mxPoint x="780" y="690" />
            </Array>
          </mxGeometry>
        </mxCell>
      </root>
    </mxGraphModel>
  </diagram>
</mxfile>
